<svg xmlns="http://www.w3.org/2000/svg" height="40" viewBox="0 96 960 960" width="40"><path d="M787.334 960.833 524.355 698.5q-28.522 22.282-67.494 34.391Q417.888 745 373.325 745q-114.218 0-193.688-79.469-79.47-79.47-79.47-192.167t79.287-192.197q79.287-79.5 192.5-79.5t192.379 79.508Q643.5 360.684 643.5 473.539q0 44.461-12.167 82.378-12.167 37.916-35 69.594l264 262.656-72.999 72.666ZM372.735 643.667q71.432 0 120.432-49.456t49-120.917q0-71.461-49.098-120.878t-120.5-49.417q-71.958 0-121.514 49.456t-49.556 120.917q0 71.461 49.486 120.878 49.485 49.417 121.75 49.417Z"/></svg>